<?xml version="1.0" standalone="no"?>
<!DOCTYPE svg PUBLIC "-//W3C//DTD SVG 20010904//EN"
 "http://www.w3.org/TR/2001/REC-SVG-20010904/DTD/svg10.dtd">
<svg version="1.0" xmlns="http://www.w3.org/2000/svg"
 width="1775.000000pt" height="890.000000pt" viewBox="0 0 1775.000000 890.000000"
 preserveAspectRatio="xMidYMid meet">

<g transform="translate(0.000000,890.000000) scale(0.100000,-0.100000)"
fill="#000000" stroke="none">
<path d="M780 5205 l0 -3035 7940 0 7940 0 0 3035 0 3035 -7940 0 -7940 0 0
-3035z m15720 0 l0 -2875 -7777 2 -7778 3 -3 2873 -2 2872 7780 0 7780 0 0
-2875z"/>
<path d="M2028 7674 c-3 -5 -8 -27 -12 -49 -4 -22 -24 -130 -46 -240 -21 -110
-75 -387 -120 -615 -44 -228 -87 -446 -95 -485 -8 -38 -39 -200 -70 -360 -31
-159 -58 -298 -61 -307 -5 -17 7 -18 148 -18 l154 0 22 133 c13 72 29 166 37
207 7 41 23 129 34 195 11 66 39 222 61 346 22 124 40 236 40 248 0 13 5 21
12 19 12 -4 37 -60 373 -821 99 -224 184 -406 189 -404 5 2 76 151 156 333 81
181 204 455 273 609 68 153 129 281 134 282 6 2 13 -16 16 -39 2 -24 35 -218
72 -433 36 -214 73 -430 81 -480 8 -49 19 -114 25 -142 l10 -53 150 0 c89 0
149 4 149 10 0 8 -131 760 -185 1065 -8 44 -50 284 -94 533 -44 250 -82 456
-85 459 -3 4 -8 4 -10 2 -2 -2 -67 -143 -144 -314 -77 -170 -217 -481 -312
-690 -95 -209 -181 -401 -192 -427 -12 -27 -24 -48 -27 -48 -4 0 -56 109 -115
243 -615 1374 -561 1254 -568 1241z"/>
<path d="M12545 7506 c-58 -25 -105 -103 -105 -174 0 -31 27 -92 53 -120 77
-83 221 -71 286 23 61 89 21 231 -76 271 -41 18 -119 17 -158 0z"/>
<path d="M9660 7055 l0 -224 -57 -3 -58 -3 0 -130 0 -130 58 -3 57 -3 0 -479
0 -480 145 0 145 0 0 483 0 482 107 0 108 0 0 130 0 130 -107 3 -108 3 0 224
0 225 -145 0 -145 0 0 -225z"/>
<path d="M4871 6849 c-133 -26 -278 -103 -354 -188 -64 -71 -116 -160 -143
-245 -33 -103 -38 -273 -10 -376 48 -178 172 -332 327 -409 114 -56 205 -74
344 -68 189 9 307 59 431 182 66 65 89 98 122 166 96 200 96 405 1 598 -84
171 -255 301 -442 336 -85 16 -206 18 -276 4z m291 -281 c31 -14 74 -45 97
-68 178 -183 126 -553 -92 -651 -45 -21 -68 -24 -167 -24 -103 0 -120 3 -165
25 -70 35 -139 108 -167 177 -19 50 -23 76 -23 183 0 116 2 129 28 185 44 94
118 161 210 191 69 23 210 13 279 -18z"/>
<path d="M8430 6841 c-72 -23 -96 -36 -152 -83 l-48 -39 0 55 0 56 -145 0
-145 0 0 -615 0 -615 144 0 144 0 4 383 c5 415 10 454 64 537 42 62 95 83 207
78 109 -4 142 -21 176 -93 34 -73 41 -159 41 -542 l0 -363 140 0 140 0 0 448
c0 477 -3 512 -51 607 -49 95 -159 172 -279 195 -78 15 -178 11 -240 -9z"/>
<path d="M11065 6850 c-223 -45 -399 -216 -462 -450 -23 -88 -24 -281 0 -370
61 -232 226 -407 429 -455 173 -41 350 -1 471 105 l47 42 0 -61 0 -61 145 0
145 0 0 615 0 615 -145 0 -145 0 0 -71 0 -71 -55 50 c-59 54 -135 95 -206 111
-51 12 -166 12 -224 1z m276 -273 c148 -62 221 -184 221 -372 0 -142 -47 -250
-140 -321 -88 -67 -241 -86 -337 -40 -223 104 -280 460 -105 650 75 82 125
104 235 105 51 0 85 -6 126 -22z"/>
<path d="M13900 6841 c-72 -23 -96 -36 -152 -83 l-48 -39 0 56 0 56 -142 -3
-143 -3 -3 -612 -2 -613 144 0 144 0 5 383 c4 405 8 437 56 524 12 21 38 50
58 63 33 23 46 25 142 25 94 0 110 -3 138 -23 40 -28 69 -89 82 -172 6 -36 11
-227 11 -432 l0 -368 141 0 140 0 -3 478 -3 477 -25 59 c-33 81 -113 166 -189
200 -109 49 -250 60 -351 27z"/>
<path d="M15379 6846 c-109 -32 -211 -123 -250 -224 -27 -73 -31 -199 -7 -254
36 -82 99 -132 271 -217 89 -43 174 -92 190 -108 70 -75 49 -180 -43 -217 -92
-37 -182 -6 -230 78 -17 28 -31 55 -33 60 -2 5 -56 -16 -121 -47 l-117 -56 37
-71 c46 -89 131 -170 211 -201 76 -30 258 -33 344 -7 113 35 216 133 259 245
35 89 34 209 -2 285 -45 96 -95 137 -296 237 -195 98 -228 124 -218 176 9 43
46 76 93 82 56 7 102 -10 151 -57 23 -22 43 -40 46 -40 12 0 206 131 206 139
0 16 -68 97 -104 125 -74 56 -142 79 -245 82 -59 2 -114 -2 -142 -10z"/>
<path d="M6243 6408 c5 -470 11 -519 69 -616 61 -101 184 -187 309 -217 134
-31 307 -12 425 48 71 36 154 115 189 178 55 101 57 127 62 597 l5 432 -146 0
-146 0 0 -395 c0 -239 -4 -413 -11 -443 -13 -61 -66 -127 -123 -153 -49 -22
-152 -25 -200 -5 -49 21 -102 71 -122 119 -17 38 -19 80 -22 460 l-3 417 -146
0 -145 0 5 -422z"/>
<path d="M12480 6215 l0 -615 145 0 145 0 0 615 0 615 -145 0 -145 0 0 -615z"/>
<path d="M3722 4113 l3 -1068 135 0 135 0 3 235 c2 224 3 235 24 257 27 29 38
28 64 -5 11 -15 96 -126 188 -247 93 -121 175 -226 184 -232 20 -16 352 -19
352 -3 0 9 -91 126 -483 623 -38 48 -67 91 -65 95 2 5 117 118 255 251 139
134 250 247 247 252 -3 5 -84 9 -181 9 l-176 0 -195 -200 c-107 -110 -198
-200 -203 -200 -5 0 -9 275 -9 650 l0 650 -140 0 -140 0 2 -1067z"/>
<path d="M2353 5015 c-137 -30 -278 -134 -342 -252 -109 -201 -82 -418 71
-573 76 -76 155 -123 334 -199 191 -80 238 -105 290 -153 138 -127 134 -360
-8 -483 -88 -75 -234 -93 -350 -43 -90 38 -165 143 -189 263 -6 27 -12 55 -14
61 -2 7 -49 1 -142 -20 -158 -36 -155 -32 -129 -138 39 -155 150 -306 285
-387 108 -66 144 -74 316 -75 139 -1 156 1 228 27 184 65 314 197 374 382 33
102 37 274 9 370 -58 200 -194 314 -531 451 -166 67 -212 92 -259 144 -99 110
-53 282 93 347 23 10 66 16 121 17 128 1 207 -37 271 -132 18 -26 33 -49 35
-50 3 -4 188 99 219 122 18 13 18 15 -10 62 -16 27 -56 77 -89 112 -71 74
-187 137 -281 152 -83 14 -228 11 -302 -5z"/>
<path d="M7252 4024 l3 -979 145 0 145 0 3 398 2 397 28 0 c24 -1 54 -40 296
-386 148 -212 276 -392 283 -400 20 -20 356 -21 351 -1 -2 7 -133 192 -293
410 -159 219 -290 403 -290 409 0 6 23 19 50 28 90 31 139 62 211 134 110 111
154 222 154 391 0 113 -15 175 -62 267 -51 100 -143 188 -243 234 -119 55
-188 65 -503 71 l-282 6 2 -979z m550 685 c116 -25 201 -85 235 -168 20 -46
21 -162 3 -226 -19 -69 -95 -144 -175 -174 -61 -23 -270 -49 -300 -37 -13 5
-15 48 -15 311 l0 305 100 0 c54 0 123 -5 152 -11z"/>
<path d="M5352 4949 c-45 -23 -85 -78 -97 -136 -21 -100 80 -213 190 -213 39
0 124 48 145 82 101 165 -65 352 -238 267z"/>
<path d="M15187 4723 c-4 -3 -7 -105 -7 -225 l0 -218 -55 0 c-30 0 -55 -4 -55
-10 -1 -5 -1 -62 -1 -125 0 -63 0 -119 1 -125 0 -5 25 -10 55 -10 l55 0 0
-480 0 -480 23 -5 c12 -3 76 -4 142 -3 l120 3 3 482 2 482 108 3 107 3 0 130
0 130 -107 3 -108 3 0 224 0 225 -138 0 c-76 0 -142 -3 -145 -7z"/>
<path d="M9453 4295 c-79 -17 -190 -75 -254 -133 -72 -64 -141 -176 -178 -286
-124 -376 55 -768 390 -850 82 -20 241 -21 334 -1 118 25 208 75 294 163 42
43 84 92 93 108 l17 31 -114 63 c-62 34 -116 63 -119 64 -3 0 -27 -26 -53 -58
-82 -101 -190 -143 -323 -125 -75 11 -127 37 -170 85 -42 48 -81 134 -88 190
l-5 44 443 0 443 0 -6 100 c-8 129 -29 214 -79 318 -70 147 -203 255 -355 287
-84 18 -188 18 -270 0z m264 -265 c59 -30 102 -77 131 -143 26 -60 37 -57
-269 -57 l-281 0 7 28 c18 76 105 168 180 191 17 5 62 10 101 10 60 1 80 -4
131 -29z"/>
<path d="M11002 4294 c-165 -44 -273 -182 -276 -354 -2 -160 57 -229 297 -345
197 -95 227 -126 218 -224 -8 -89 -126 -137 -232 -95 -39 16 -99 81 -99 108
-1 40 -18 38 -134 -17 -115 -55 -116 -56 -106 -82 38 -100 144 -210 237 -246
72 -27 208 -36 296 -19 252 49 405 326 302 548 -41 89 -93 130 -293 230 -196
99 -228 125 -218 177 20 98 156 113 242 25 21 -22 43 -40 48 -40 13 0 206 128
206 137 0 5 -20 33 -44 63 -99 126 -277 179 -444 134z"/>
<path d="M12525 4294 c-83 -17 -212 -78 -276 -131 -105 -87 -187 -222 -215
-356 -22 -101 -15 -270 15 -357 66 -192 209 -338 403 -408 66 -24 86 -27 218
-27 122 0 156 3 215 22 194 62 354 220 417 413 32 102 37 281 9 386 -91 335
-428 532 -786 458z m262 -259 c157 -47 253 -191 253 -380 0 -211 -116 -358
-302 -384 -133 -18 -249 19 -327 105 -154 168 -127 487 50 610 88 61 220 81
326 49z"/>
<path d="M14407 4299 c-53 -12 -94 -35 -149 -80 l-47 -39 -3 47 -3 48 -142 3
-143 3 0 -621 0 -621 143 3 142 3 5 400 c5 379 6 402 26 445 25 54 76 108 121
126 51 22 171 18 216 -6 l37 -20 9 22 c5 13 30 67 55 122 25 54 46 104 46 111
0 14 -58 41 -120 55 -54 12 -141 11 -193 -1z"/>
<path d="M5297 4273 c-4 -3 -7 -280 -7 -614 l0 -609 23 -5 c12 -3 76 -4 142
-3 l120 3 3 618 2 617 -138 0 c-76 0 -142 -3 -145 -7z"/>
<path d="M5771 1038 c-8 -18 -81 -174 -163 -347 -81 -173 -148 -318 -148 -322
0 -5 24 -9 54 -9 l54 0 38 80 37 80 143 0 142 0 33 -80 34 -80 58 0 c31 0 57
1 57 3 0 2 -38 89 -85 193 -47 104 -118 262 -158 352 -39 89 -74 162 -77 162
-3 0 -12 -15 -19 -32z m68 -317 c23 -52 41 -96 41 -98 0 -2 -43 -3 -95 -3 -52
0 -95 2 -95 4 0 2 12 30 26 62 15 33 35 79 46 103 11 26 22 41 28 35 5 -5 27
-51 49 -103z"/>
<path d="M9388 842 c-201 -425 -218 -462 -218 -472 0 -5 24 -10 54 -10 l53 0
36 80 36 80 143 0 143 0 34 -80 34 -80 54 0 c30 0 53 4 53 11 0 5 -24 65 -54
132 -161 363 -247 552 -254 559 -4 4 -55 -95 -114 -220z m156 -111 c20 -47 36
-90 36 -98 0 -10 -22 -13 -90 -13 -49 0 -90 4 -90 9 0 21 92 203 100 195 4 -5
24 -47 44 -93z"/>
<path d="M7384 1036 c-160 -39 -257 -168 -257 -341 0 -101 27 -175 88 -243 67
-75 119 -96 235 -97 84 0 101 3 152 28 98 48 160 143 174 265 l7 62 -142 0
-141 0 0 -45 0 -45 80 0 c77 0 80 -1 80 -23 0 -37 -53 -102 -102 -126 -124
-59 -273 8 -313 140 -20 70 -19 117 5 182 37 98 115 151 225 151 77 0 110 -13
165 -64 l34 -32 33 18 c57 30 59 38 14 83 -48 48 -98 75 -169 90 -65 14 -102
13 -168 -3z"/>
<path d="M11220 1039 c-87 -26 -135 -96 -128 -184 7 -78 33 -108 145 -161 117
-56 143 -82 143 -138 -1 -123 -161 -147 -206 -31 l-17 46 -41 -7 c-23 -3 -44
-8 -48 -11 -24 -14 11 -99 59 -145 132 -125 362 -31 363 148 0 102 -38 149
-177 216 -103 49 -120 66 -114 113 9 64 106 83 160 31 28 -27 32 -28 60 -16
51 21 57 35 28 74 -46 59 -148 88 -227 65z"/>
<path d="M12534 1035 c-103 -22 -183 -87 -227 -184 -17 -37 -21 -66 -22 -151
0 -95 3 -110 28 -162 32 -65 84 -116 159 -155 47 -24 64 -27 148 -27 76 -1
104 4 143 21 l47 22 0 60 c0 34 -2 61 -4 61 -3 0 -28 -14 -56 -32 -85 -53
-190 -49 -268 9 -141 105 -125 338 28 423 36 19 59 24 116 24 63 0 78 -3 123
-32 29 -17 54 -32 57 -32 2 0 4 27 4 60 0 55 -2 61 -27 74 -33 16 -123 36
-161 35 -15 0 -55 -7 -88 -14z"/>
<path d="M4662 698 l3 -333 53 -3 52 -3 0 160 0 161 140 0 139 0 3 -157 3
-158 53 -3 52 -3 0 335 0 336 -55 0 -55 0 0 -125 0 -125 -140 0 -140 0 0 125
0 125 -55 0 -55 0 2 -332z"/>
<path d="M6402 698 l3 -333 53 -3 52 -3 0 143 c0 167 -10 168 117 -12 l88
-125 63 -3 c34 -2 62 1 62 5 -1 4 -45 69 -99 143 l-99 135 47 26 c68 39 94 91
89 178 -3 56 -9 75 -32 106 -46 60 -91 75 -229 75 l-117 0 2 -332z m200 232
c45 -13 78 -52 78 -94 0 -61 -55 -106 -130 -106 l-40 0 0 98 c0 54 3 102 7
105 9 10 42 8 85 -3z"/>
<path d="M8120 694 l0 -335 53 3 52 3 3 333 2 332 -55 0 -55 0 0 -336z"/>
<path d="M8530 985 l0 -44 73 -3 72 -3 3 -288 2 -288 53 3 52 3 3 288 2 287
75 0 75 0 0 45 0 45 -205 0 -205 0 0 -45z"/>
<path d="M11830 694 l0 -335 53 3 52 3 3 333 2 332 -55 0 -55 0 0 -336z"/>
<path d="M10096 370 c-27 -66 -46 -126 -43 -134 5 -12 55 -32 62 -24 2 2 30
58 63 124 l61 122 -42 16 c-24 9 -45 16 -48 16 -3 0 -27 -54 -53 -120z"/>
</g>
</svg>
