<?xml version="1.0" standalone="no"?>
<!DOCTYPE svg PUBLIC "-//W3C//DTD SVG 20010904//EN"
 "http://www.w3.org/TR/2001/REC-SVG-20010904/DTD/svg10.dtd">
<svg version="1.0" xmlns="http://www.w3.org/2000/svg"
 width="2560.000000pt" height="2560.000000pt" viewBox="0 0 2560.000000 2560.000000"
 preserveAspectRatio="xMidYMid meet">

<g transform="translate(0.000000,2560.000000) scale(0.100000,-0.100000)"
fill="#000000" stroke="none">
<path d="M12510 21667 c-3 -3 -70 -8 -150 -12 -173 -8 -187 -9 -430 -30 -83
-7 -252 -27 -335 -40 -49 -8 -164 -25 -255 -40 -91 -14 -194 -30 -230 -36 -96
-15 -448 -101 -735 -180 -131 -36 -564 -175 -620 -199 -11 -4 -99 -39 -195
-76 -147 -56 -239 -94 -395 -164 -63 -28 -543 -266 -610 -303 -215 -117 -424
-242 -610 -365 -142 -94 -384 -265 -510 -360 -44 -34 -100 -76 -125 -94 -65
-49 -336 -278 -444 -378 -219 -200 -326 -305 -516 -505 -118 -125 -301 -333
-392 -445 -74 -92 -260 -329 -321 -409 -37 -49 -367 -541 -367 -547 0 -2 -16
-28 -35 -58 -125 -195 -358 -630 -477 -891 -96 -210 -192 -431 -228 -530 -10
-27 -32 -88 -50 -135 -152 -409 -280 -862 -371 -1310 -72 -354 -102 -550 -133
-880 -38 -398 -44 -552 -40 -960 2 -195 6 -373 8 -395 2 -22 7 -83 10 -135 22
-335 33 -424 137 -1080 15 -96 101 -447 180 -735 36 -131 175 -564 199 -620 4
-11 39 -99 76 -195 56 -147 94 -239 164 -395 5 -11 65 -135 134 -275 162 -331
218 -434 376 -695 88 -144 219 -345 324 -495 50 -72 322 -435 339 -452 7 -7
43 -51 81 -98 406 -497 983 -1048 1511 -1441 148 -109 177 -130 325 -231 74
-50 155 -106 180 -123 25 -17 89 -58 143 -91 569 -345 1117 -608 1688 -813
181 -64 331 -113 539 -175 256 -76 740 -186 965 -220 309 -47 366 -55 429 -61
38 -4 79 -8 90 -10 54 -8 118 -15 201 -21 49 -3 101 -8 115 -9 157 -19 838
-27 1100 -12 167 9 451 34 590 51 14 2 52 6 85 10 259 30 820 138 1090 211 55
14 123 32 150 40 225 58 716 221 895 297 14 6 35 15 48 19 12 5 32 13 45 18
49 19 120 49 200 85 32 14 59 26 61 26 14 0 442 210 564 277 131 71 237 131
272 152 19 11 42 24 50 28 8 4 49 28 90 53 297 184 359 225 581 385 47 34 101
73 119 86 42 30 273 210 280 219 3 3 55 46 115 95 318 258 752 685 1027 1010
74 88 322 395 363 450 8 11 36 48 62 82 145 188 393 567 535 818 134 235 136
239 243 450 232 458 438 966 560 1385 141 482 222 821 266 1105 60 392 61 401
83 620 20 201 24 256 33 420 15 266 8 875 -12 1115 -7 77 -34 348 -40 390 -2
19 -7 60 -10 90 -26 238 -138 815 -210 1085 -14 55 -32 123 -40 150 -58 225
-221 716 -297 895 -6 14 -15 35 -19 48 -5 12 -13 33 -19 47 -5 14 -14 36 -20
50 -16 40 -27 65 -65 148 -19 43 -35 80 -35 82 0 31 -332 675 -424 824 -12 20
-26 43 -29 51 -4 8 -26 45 -50 82 -23 37 -62 100 -86 140 -50 83 -214 325
-296 438 -30 41 -67 93 -82 115 -78 112 -375 475 -532 649 -206 229 -537 555
-771 756 -41 36 -77 67 -80 70 -12 12 -79 67 -110 90 -18 14 -83 65 -144 114
-556 445 -1240 856 -1911 1150 -110 48 -209 91 -220 96 -202 90 -698 258 -995
338 -373 101 -831 198 -1099 233 -198 26 -270 34 -386 44 -38 3 -83 8 -100 10
-16 2 -82 6 -145 10 -63 4 -131 9 -150 11 -47 6 -764 16 -770 11z m870 -201
c25 -3 124 -13 220 -21 96 -9 186 -18 200 -20 14 -3 45 -7 70 -10 25 -3 74 -9
110 -14 36 -5 101 -15 145 -21 200 -29 739 -140 845 -175 3 -1 19 -5 35 -9 62
-16 169 -46 305 -86 104 -31 348 -112 450 -150 47 -17 116 -43 154 -57 62 -22
281 -115 411 -172 28 -13 82 -37 120 -54 135 -60 562 -281 617 -319 14 -10 28
-18 31 -18 3 0 49 -27 104 -60 54 -32 123 -74 153 -91 69 -41 425 -277 507
-338 34 -25 97 -71 139 -101 160 -115 502 -398 684 -565 36 -32 151 -145 256
-250 165 -165 232 -236 414 -440 152 -170 409 -496 559 -710 123 -175 431
-661 431 -681 0 -2 12 -23 27 -47 36 -57 131 -237 199 -377 68 -139 162 -338
174 -365 4 -11 15 -36 23 -55 45 -105 106 -252 126 -305 13 -33 27 -69 31 -80
17 -43 42 -111 61 -169 11 -34 24 -70 29 -81 9 -22 73 -220 96 -297 8 -27 21
-72 30 -100 20 -68 51 -183 73 -278 10 -41 26 -100 34 -130 23 -78 122 -592
142 -735 9 -66 20 -147 25 -180 8 -52 15 -113 26 -205 1 -14 5 -65 9 -115 3
-49 8 -95 10 -102 26 -82 26 -1154 0 -1377 -2 -15 -6 -69 -10 -120 -3 -50 -8
-102 -10 -116 -3 -14 -14 -97 -25 -185 -11 -88 -25 -182 -30 -210 -5 -27 -12
-72 -16 -100 -14 -120 -70 -387 -141 -670 -19 -77 -39 -158 -44 -180 -20 -82
-120 -397 -191 -605 -45 -131 -190 -497 -254 -639 -14 -31 -35 -78 -47 -106
-33 -76 -240 -483 -276 -543 -17 -29 -31 -54 -31 -56 0 -5 -149 -260 -196
-334 -57 -92 -282 -431 -305 -461 -11 -14 -76 -102 -145 -195 -252 -341 -463
-584 -789 -911 -388 -389 -699 -653 -1150 -976 -164 -117 -529 -352 -595 -382
-8 -4 -22 -11 -30 -17 -29 -18 -145 -87 -205 -120 -111 -62 -550 -277 -650
-320 -11 -4 -36 -15 -55 -23 -157 -68 -263 -112 -310 -129 -30 -11 -64 -23
-75 -28 -37 -15 -108 -41 -169 -61 -34 -11 -70 -24 -81 -29 -22 -9 -220 -73
-297 -96 -27 -8 -72 -21 -100 -30 -68 -20 -183 -51 -278 -73 -41 -10 -100 -26
-130 -34 -78 -23 -592 -122 -735 -142 -66 -9 -147 -20 -180 -25 -54 -8 -134
-18 -205 -25 -14 -2 -65 -6 -115 -10 -49 -3 -95 -8 -102 -10 -79 -26 -1171
-26 -1389 0 -16 2 -65 6 -109 9 -44 4 -109 11 -145 16 -36 5 -108 14 -160 20
-52 7 -134 18 -182 26 -48 8 -106 17 -130 20 -128 17 -453 86 -688 146 -63 16
-133 34 -155 39 -22 5 -51 14 -65 18 -14 5 -59 19 -100 31 -138 40 -328 102
-500 163 -119 42 -394 152 -504 201 -28 13 -100 45 -161 71 -118 52 -431 210
-586 295 -89 50 -218 126 -409 243 -127 78 -403 264 -511 345 -51 39 -120 90
-152 114 -186 138 -448 357 -622 517 -292 271 -647 651 -888 951 -91 113 -103
129 -233 305 -225 305 -401 583 -629 990 -38 68 -219 427 -244 485 -13 30 -41
96 -63 145 -21 50 -42 99 -47 110 -5 11 -16 36 -24 55 -8 19 -22 53 -32 75
-30 69 -36 86 -70 175 -32 83 -117 325 -125 355 -4 17 -17 57 -28 90 -11 33
-30 94 -42 135 -12 41 -25 86 -30 100 -8 22 -22 74 -76 270 -23 86 -92 410
-119 562 -14 76 -29 157 -34 180 -6 24 -15 80 -20 126 -6 45 -16 119 -22 165
-12 92 -13 99 -28 247 -11 109 -16 171 -29 350 -15 214 -5 1169 12 1199 2 3 7
52 10 108 4 56 9 112 11 125 6 41 16 113 21 159 27 245 117 725 188 1009 38
153 76 293 85 320 5 14 17 52 26 85 25 84 117 364 155 465 18 47 40 108 50
135 40 112 122 307 217 515 109 238 270 548 393 755 101 169 137 227 278 440
235 354 471 662 751 980 225 255 682 696 922 890 40 33 83 68 94 78 25 23 354
274 421 321 280 198 582 387 889 556 167 93 448 229 640 312 105 45 115 49
177 77 26 12 50 21 53 21 3 0 27 9 53 21 98 43 411 158 487 179 17 4 57 17 90
28 33 11 94 30 135 42 41 12 86 25 100 30 14 5 68 20 120 35 52 14 120 32 150
41 150 41 715 153 877 174 43 6 114 15 158 21 89 12 97 13 245 28 126 13 210
19 350 27 58 3 107 8 109 10 7 6 928 -3 981 -10z"/>
<path d="M12646 20349 c-5 -75 -37 -1190 -36 -1281 l0 -38 105 0 105 0 1 93
c0 50 8 362 18 692 10 330 17 601 17 602 -1 0 -47 4 -103 8 l-101 7 -6 -83z"/>
<path d="M11564 20365 c-61 -19 -116 -50 -147 -82 -40 -43 -67 -129 -67 -217
0 -80 99 -773 125 -869 48 -185 172 -264 366 -233 150 24 234 102 260 244 9
49 6 93 -27 317 -20 143 -41 264 -45 269 -7 8 -286 -27 -296 -38 -4 -3 12
-118 23 -165 5 -22 8 -23 58 -17 l52 7 24 -160 c27 -184 23 -213 -29 -248 -70
-47 -158 -15 -181 65 -15 52 -121 778 -121 829 -1 78 46 123 125 123 67 0 98
-45 117 -168 12 -81 13 -83 38 -78 14 3 46 8 71 11 100 14 100 13 94 48 -25
148 -38 197 -67 245 -57 96 -130 133 -256 131 -42 -1 -94 -7 -117 -14z"/>
<path d="M13499 20303 c-6 -32 -12 -74 -13 -93 l-1 -34 100 -19 c55 -11 103
-23 106 -28 3 -5 -45 -271 -108 -591 -62 -320 -111 -583 -110 -584 10 -9 199
-39 203 -33 3 5 55 266 115 581 61 315 115 577 120 582 5 5 50 1 111 -12 57
-11 105 -19 107 -17 4 5 40 179 38 182 -4 3 -627 123 -642 123 -9 0 -18 -21
-26 -57z"/>
<path d="M10375 20040 c-125 -33 -360 -127 -357 -141 13 -53 478 -1289 485
-1289 17 0 187 65 187 71 0 3 -45 127 -100 274 -55 148 -100 275 -100 282 0 7
31 22 69 33 127 39 149 15 259 -278 37 -98 75 -191 85 -205 l17 -26 67 26 c38
14 82 30 98 36 17 5 31 11 33 12 2 2 -8 19 -22 39 -14 21 -42 81 -62 134 -101
265 -118 306 -147 344 -44 56 -76 78 -125 85 -41 6 -52 15 -32 28 19 12 49 81
51 121 4 55 -9 125 -37 200 -60 161 -117 232 -205 258 -65 20 -77 19 -164 -4z
m94 -205 c31 -15 51 -54 96 -177 32 -90 29 -131 -13 -170 -26 -24 -99 -58
-125 -58 -13 0 -155 366 -146 374 2 3 27 14 54 25 60 24 97 26 134 6z"/>
<path d="M14886 19991 c-2 -3 -13 -22 -24 -41 -11 -19 -73 -120 -138 -225 -65
-104 -152 -246 -194 -315 -56 -92 -313 -510 -375 -610 -5 -7 167 -80 175 -75
3 2 36 55 74 119 l68 115 52 -20 c168 -67 181 -74 180 -99 -1 -14 -13 -69 -28
-123 -15 -55 -26 -106 -24 -115 2 -9 40 -31 93 -53 49 -21 91 -37 92 -36 4 5
65 261 164 687 137 592 158 685 156 686 -11 10 -268 110 -271 105z m-15 -512
c-83 -324 -111 -432 -114 -436 -4 -4 -170 66 -180 76 -5 5 3 28 18 51 14 22
35 58 47 78 25 45 112 194 190 325 32 54 58 101 58 104 0 9 32 44 37 40 2 -2
-24 -109 -56 -238z"/>
<path d="M9072 19406 c-62 -40 -115 -76 -119 -79 -6 -7 29 -92 125 -307 11
-25 32 -74 47 -110 15 -36 36 -85 47 -110 42 -94 57 -128 103 -235 45 -104 59
-135 104 -237 10 -24 42 -99 71 -168 29 -69 54 -127 56 -128 2 -3 164 97 164
102 0 0 -25 57 -55 124 -30 68 -55 125 -55 127 0 7 200 135 209 135 5 0 42
-37 82 -82 40 -46 80 -91 90 -102 17 -18 20 -17 103 35 47 30 86 56 86 59 0 3
-10 16 -22 30 -13 14 -61 68 -108 120 -47 52 -87 97 -90 100 -4 3 -46 50 -95
105 -49 55 -92 102 -95 105 -3 3 -39 43 -80 90 -41 47 -91 103 -112 125 -20
22 -47 52 -60 66 -12 14 -59 66 -104 115 -44 49 -101 112 -125 141 -24 28 -46
52 -49 52 -3 0 -56 -33 -118 -73z m152 -238 c73 -87 172 -203 221 -258 137
-155 207 -242 199 -249 -19 -17 -155 -101 -163 -101 -5 0 -16 17 -24 38 -14
34 -56 127 -129 282 -17 36 -43 92 -58 125 -15 33 -39 86 -54 117 -14 31 -26
59 -26 62 0 13 17 5 34 -16z"/>
<path d="M8140 18685 l-75 -75 203 -203 202 -202 -83 -83 c-45 -45 -87 -82
-92 -82 -5 0 -99 89 -207 197 l-198 198 -72 -73 -73 -72 492 -492 493 -493 75
75 75 75 -222 222 -223 223 85 85 84 85 223 -222 223 -222 75 74 75 75 -492
492 c-271 271 -493 493 -493 493 0 0 -34 -34 -75 -75z"/>
<path d="M17545 17920 c-197 -98 -246 -118 -275 -115 -19 2 -85 5 -146 7
l-112 3 -33 -41 c-19 -22 -43 -50 -55 -62 -12 -13 -44 -69 -71 -125 -28 -56
-64 -117 -81 -134 -123 -132 -130 -144 -161 -267 -16 -63 -32 -119 -34 -124
-3 -4 3 -19 13 -32 15 -20 26 -24 67 -23 l48 1 -40 -12 c-35 -11 -41 -18 -54
-59 -13 -41 -12 -48 3 -71 22 -35 36 -33 79 11 44 43 58 38 28 -10 -26 -42
-26 -54 -2 -62 18 -5 44 9 149 86 14 10 29 40 39 75 9 33 26 66 37 74 49 37
127 90 131 90 3 0 19 -30 36 -67 17 -38 49 -106 72 -153 29 -61 41 -102 45
-146 4 -60 4 -62 -31 -88 -27 -21 -33 -32 -29 -51 2 -14 5 -25 7 -25 7 0 210
42 212 44 5 5 85 241 86 251 0 12 -14 242 -16 270 -2 23 -33 21 343 30 162 4
311 8 330 10 31 2 46 -7 125 -72 49 -42 95 -88 101 -102 27 -64 27 -65 -25
-95 -46 -27 -72 -68 -51 -81 4 -3 43 4 86 16 44 11 106 27 139 35 33 9 63 19
67 23 5 4 -16 127 -45 273 l-54 267 -158 210 c-154 204 -161 211 -214 232 -31
13 -81 34 -111 47 -72 33 -194 82 -200 82 -3 -1 -113 -54 -245 -120z"/>
<path d="M17974 17170 c-11 -4 15 -29 86 -80 99 -74 101 -76 95 -109 -12 -62
-23 -81 -55 -87 -23 -5 -30 -12 -30 -30 0 -22 4 -24 50 -24 49 0 50 1 129 83
44 45 81 90 81 99 0 9 -38 49 -85 88 l-86 72 -84 -4 c-47 -2 -92 -5 -101 -8z"/>
<path d="M17480 17129 c0 -50 96 -185 184 -257 42 -34 76 -68 76 -75 0 -6 -7
-21 -15 -31 -24 -31 -18 -39 23 -32 75 14 105 87 58 143 -14 16 -44 86 -67
156 l-43 127 -108 0 -108 0 0 -31z"/>
<path d="M13108 17021 c-124 -25 -229 -49 -233 -53 -7 -6 204 -1078 214 -1090
5 -5 457 79 469 87 4 3 -25 136 -32 143 -4 3 -70 -6 -148 -22 -77 -15 -144
-24 -148 -19 -13 14 -72 325 -63 333 4 4 37 13 73 19 36 7 86 17 111 22 l46
10 -15 74 c-9 44 -20 75 -27 75 -7 0 -58 -9 -115 -21 -56 -11 -106 -17 -110
-12 -11 11 -63 273 -56 280 3 3 69 18 147 34 78 16 144 31 146 33 3 3 -25 148
-30 151 -1 1 -104 -19 -229 -44z"/>
<path d="M12475 16911 c-108 -27 -185 -125 -185 -235 0 -17 31 -187 70 -378
75 -376 90 -422 157 -477 100 -82 307 -48 382 64 44 66 47 143 10 315 -12 56
-11 56 -105 38 -72 -13 -71 -10 -49 -108 21 -97 19 -142 -8 -168 -43 -41 -116
-30 -140 21 -18 38 -136 623 -139 685 -2 62 30 94 91 90 57 -4 76 -29 96 -127
9 -41 17 -76 19 -78 4 -4 148 26 154 31 7 8 -28 158 -47 200 -39 87 -117 136
-216 135 -33 -1 -73 -4 -90 -8z"/>
<path d="M12033 16807 c-39 -7 -53 -14 -53 -26 0 -9 27 -151 60 -316 33 -164
58 -301 55 -303 -4 -5 -65 118 -234 471 -49 104 -64 127 -79 123 -9 -3 -56
-12 -104 -22 -49 -9 -88 -22 -88 -28 -1 -6 47 -254 107 -551 l107 -541 76 15
76 14 -73 366 c-40 201 -75 378 -79 394 -3 16 -1 27 5 27 6 0 11 -4 11 -9 0
-5 50 -112 111 -237 61 -126 140 -289 175 -361 35 -73 67 -133 71 -133 4 0 44
7 89 16 l81 16 -110 549 c-124 619 -100 556 -204 536z"/>
<path d="M11357 16672 c-61 -12 -76 -19 -73 -31 3 -9 53 -257 112 -552 l106
-536 82 17 c54 10 82 21 83 30 4 27 -212 1084 -222 1085 -6 2 -45 -5 -88 -13z"/>
<path d="M10905 16596 c-158 -39 -226 -172 -180 -350 27 -103 85 -169 230
-261 133 -85 174 -122 201 -179 50 -107 20 -186 -70 -186 -54 0 -82 28 -91 94
-10 67 -14 70 -81 56 -110 -22 -104 -11 -72 -120 19 -63 30 -83 73 -126 44
-45 59 -53 108 -61 138 -24 275 42 317 152 17 43 15 140 -4 213 -28 109 -97
188 -241 277 -44 27 -97 62 -118 78 -109 84 -125 241 -26 261 60 12 99 -24
114 -108 8 -42 1 -41 127 -15 l46 10 -17 62 c-26 93 -59 147 -111 178 -55 34
-134 43 -205 25z"/>
<path d="M17806 16142 c-38 -26 -77 -58 -87 -72 -18 -24 -76 -182 -124 -340
-13 -41 -46 -147 -75 -235 -50 -157 -75 -236 -125 -395 -14 -44 -37 -117 -51
-162 -14 -46 -32 -103 -39 -128 -7 -25 -25 -83 -40 -130 -38 -120 -71 -244
-85 -318 -12 -60 -12 -64 10 -87 20 -21 33 -25 86 -25 73 0 63 -18 125 223 24
92 48 167 54 167 5 0 35 -30 65 -66 204 -243 402 -288 566 -128 31 30 57 54
60 54 2 0 24 -15 50 -32 41 -30 53 -33 118 -33 60 0 82 5 136 32 85 41 180
129 227 206 34 56 37 69 37 133 0 70 -19 124 -44 124 -5 0 -37 -42 -71 -92
-95 -146 -176 -218 -243 -218 -54 0 -59 59 -15 180 90 254 199 596 199 627 0
8 -13 28 -29 44 -32 31 -75 38 -114 18 -51 -27 -197 -213 -197 -253 0 -8 14
-28 31 -44 l30 -28 -21 -60 c-12 -32 -42 -122 -66 -199 -25 -77 -52 -153 -60
-170 -26 -53 -115 -165 -144 -180 -82 -42 -183 14 -275 154 l-28 41 97 91
c110 105 206 228 262 338 50 98 59 189 23 235 -20 25 -27 28 -66 23 -57 -6
-93 -39 -93 -83 0 -66 -106 -216 -272 -385 -84 -86 -118 -106 -98 -56 5 12 21
60 35 107 14 47 63 200 109 340 46 140 114 350 151 465 37 116 73 229 81 253
17 52 18 84 2 100 -17 17 -15 17 -92 -36z"/>
<path d="M16900 15975 c-153 -34 -197 -49 -340 -119 -164 -81 -330 -191 -454
-302 -111 -99 -154 -150 -207 -248 -35 -65 -42 -88 -46 -154 -8 -111 7 -156
71 -217 85 -81 175 -105 436 -119 289 -16 416 -34 462 -67 51 -37 34 -90 -58
-184 -72 -74 -128 -116 -234 -177 -124 -71 -233 -113 -350 -136 -107 -21 -230
-19 -285 4 -29 12 -35 20 -35 44 0 43 -24 39 -76 -14 -44 -43 -50 -61 -44
-126 5 -59 63 -122 137 -150 72 -27 166 -26 306 4 313 66 552 184 732 361 131
129 175 211 176 329 1 56 -4 81 -21 112 -30 54 -74 97 -128 127 -57 30 -198
74 -267 82 -27 3 -61 8 -75 10 -14 3 -81 7 -150 10 -140 7 -279 29 -322 51
-59 31 -52 77 30 180 154 195 397 373 630 460 79 30 84 30 72 -2 -12 -30 -13
-81 -2 -87 7 -5 40 4 231 64 86 27 112 39 148 74 37 36 43 47 43 83 0 97 -37
123 -180 127 -69 2 -124 -4 -200 -20z"/>
<path d="M18611 15953 c-90 -17 -166 -166 -131 -257 18 -49 101 -42 152 12 29
31 65 97 68 127 10 92 -19 130 -89 118z"/>
<path d="M6287 15487 c-43 -117 -86 -234 -97 -262 -25 -66 -102 -274 -254
-687 -29 -82 -51 -148 -47 -148 12 0 1754 350 1757 353 2 2 -89 95 -201 207
-130 130 -208 201 -214 195 -5 -6 -65 -94 -134 -197 -121 -182 -125 -187 -142
-168 -17 19 -15 23 50 122 l68 102 -335 330 c-184 182 -343 338 -354 348 -18
16 -21 10 -97 -195z m311 -89 c108 -110 201 -206 205 -214 8 -13 -168 74 -201
99 -20 16 -22 5 -12 -59 6 -32 10 -74 10 -93 0 -40 7 -45 -90 69 -74 87 -78
91 -83 83 -3 -5 -8 -39 -11 -78 -4 -38 -10 -92 -14 -119 l-7 -50 -38 97 c-22
53 -42 97 -45 97 -4 0 -24 -16 -45 -36 -21 -20 -40 -34 -42 -32 -6 5 15 64 85
248 29 74 56 150 61 168 6 18 15 30 20 26 5 -3 99 -96 207 -206z"/>
<path d="M13266 14883 c-96 -25 -167 -150 -140 -249 16 -61 108 -52 167 16 64
75 81 192 33 225 -21 15 -27 16 -60 8z"/>
<path d="M14840 14824 c-88 -23 -169 -63 -290 -143 -183 -121 -301 -277 -303
-399 -1 -145 70 -187 330 -193 100 -2 180 -14 199 -30 19 -16 -3 -57 -50 -93
-52 -39 -173 -94 -239 -108 -52 -11 -59 -10 -84 9 -16 11 -30 29 -32 39 -1 10
-9 26 -16 34 -7 8 -18 34 -25 58 -20 78 -44 69 -121 -44 -68 -102 -153 -191
-195 -204 -106 -35 -121 40 -48 255 20 61 56 154 81 208 62 140 93 238 93 297
0 43 -4 55 -27 76 -25 23 -35 26 -84 22 -116 -8 -234 -104 -354 -287 -16 -24
-31 -39 -32 -34 -2 5 8 44 22 86 29 89 33 155 10 164 -26 9 -106 -19 -142 -50
-44 -38 -45 -41 -108 -220 -29 -84 -63 -179 -74 -212 -12 -33 -36 -100 -53
-150 -44 -130 -63 -168 -115 -232 -74 -91 -137 -132 -187 -119 -46 11 -42 82
14 226 24 63 103 302 164 497 22 72 20 95 -12 126 -68 66 -151 17 -270 -159
-23 -34 -42 -69 -42 -77 0 -9 14 -29 32 -46 l31 -29 -40 -114 c-23 -62 -55
-158 -73 -213 -36 -113 -60 -159 -120 -228 -44 -50 -86 -77 -108 -70 -20 8
-42 59 -42 100 1 96 52 330 106 484 65 187 57 224 -49 208 -49 -8 -63 -18 -87
-59 -8 -13 -13 -13 -40 3 -20 12 -50 19 -81 19 -163 -2 -320 -118 -495 -368
-66 -94 -134 -284 -134 -375 0 -69 -133 -206 -209 -216 -33 -5 -41 -2 -51 17
-27 51 -12 162 54 385 40 133 171 523 195 578 22 51 27 55 141 87 174 51 227
71 242 94 18 27 6 56 -37 91 -42 35 -48 37 -91 30 -25 -3 -63 -13 -85 -20 -56
-20 -58 -7 -14 103 46 114 44 126 -17 130 -83 5 -110 -14 -160 -115 -24 -48
-52 -109 -63 -136 -16 -40 -25 -49 -55 -56 -19 -5 -73 -18 -120 -29 -112 -27
-131 -35 -175 -73 -37 -33 -75 -103 -75 -139 0 -48 79 -49 205 -5 63 23 105
31 105 21 0 -2 -18 -52 -40 -112 -97 -259 -180 -534 -205 -676 -4 -22 -30 -69
-65 -115 -99 -134 -161 -181 -221 -168 -23 5 -30 14 -35 41 -12 64 14 154 122
422 85 208 105 277 97 327 -12 77 -111 98 -217 45 -60 -31 -151 -120 -224
-222 -30 -43 -57 -76 -60 -74 -2 3 6 33 18 68 12 35 24 89 27 120 5 48 3 59
-11 64 -29 11 -105 -17 -145 -55 -42 -39 -47 -50 -136 -306 -135 -384 -122
-353 -181 -445 -55 -86 -122 -158 -156 -166 -89 -20 -61 219 73 623 77 230 73
258 -26 228 -91 -27 -108 -50 -175 -235 -73 -203 -400 -710 -440 -685 -22 13
-1 151 45 305 35 114 97 317 105 340 23 67 22 89 -4 115 -21 21 -34 26 -63 23
-31 -2 -42 -10 -65 -43 -34 -51 -180 -487 -207 -622 -42 -206 -15 -320 86
-354 116 -38 255 81 403 344 32 56 56 68 44 22 -7 -28 11 -143 28 -181 14 -30
61 -60 110 -69 51 -10 137 17 194 62 43 32 54 36 105 34 67 -2 58 -13 162 191
160 313 456 751 480 711 3 -5 -22 -78 -55 -163 -121 -309 -141 -491 -66 -580
48 -57 137 -80 220 -55 69 20 118 54 187 131 l53 59 42 -41 c103 -104 267 -78
396 62 l51 56 24 -26 c56 -60 146 -72 235 -30 68 31 186 151 250 252 25 39 50
70 55 68 6 -1 12 -28 15 -59 6 -66 46 -129 100 -159 73 -40 180 -7 277 85 49
46 54 49 71 34 30 -27 105 -57 145 -57 55 0 150 35 208 77 45 32 57 36 104 34
62 -2 61 -4 142 161 79 163 133 254 279 473 129 195 197 280 215 270 9 -6 0
-33 -61 -185 -111 -276 -134 -465 -68 -550 56 -72 144 -93 245 -59 58 19 78
32 141 95 l73 72 15 -24 c30 -45 75 -64 151 -64 166 0 358 91 489 233 94 102
119 193 74 270 -46 77 -132 104 -370 112 -90 3 -169 10 -174 15 -20 20 84 148
184 225 59 46 138 88 183 99 28 7 28 6 22 -22 -21 -99 139 -72 222 36 22 29
27 46 26 86 -2 68 -17 104 -48 116 -36 14 -109 11 -175 -6z m-2400 -743 c0 -5
-34 -79 -75 -166 -76 -159 -120 -234 -185 -315 -20 -25 -43 -56 -52 -70 -8
-14 -44 -56 -78 -93 -101 -110 -136 -75 -90 89 64 229 235 462 394 539 66 32
86 35 86 16z"/>
<path d="M8502 14311 l-103 -6 -48 -50 c-144 -151 -544 -744 -825 -1225 -44
-74 -92 -155 -107 -180 -27 -42 -29 -43 -29 -18 0 15 4 37 9 50 6 13 19 57 31
98 12 41 30 100 40 130 10 30 44 136 75 235 31 99 85 266 120 370 117 355 124
385 101 404 -21 18 -110 16 -148 -3 -17 -9 -46 -16 -64 -16 -23 0 -44 -10 -70
-32 -45 -40 -139 -165 -191 -254 -21 -37 -46 -81 -57 -98 -19 -32 -88 -157
-166 -301 -44 -81 -270 -533 -270 -540 0 -2 -20 -45 -44 -97 -147 -312 -308
-711 -331 -815 -13 -63 46 -103 153 -103 39 0 72 22 72 49 0 41 161 493 229
643 11 24 36 81 56 127 76 177 272 577 353 721 14 25 43 78 64 117 63 116 83
114 45 -4 -99 -309 -220 -727 -292 -1007 -39 -152 -33 -195 30 -222 48 -20 88
-17 118 7 30 23 189 257 437 644 95 149 187 293 205 320 17 28 56 88 85 135
29 47 68 109 87 138 18 28 49 78 70 110 70 110 78 122 86 122 12 0 8 -30 -8
-58 -16 -30 -47 -100 -107 -242 -22 -52 -51 -118 -64 -147 -27 -61 -113 -274
-156 -388 -65 -175 -89 -240 -93 -260 -41 -181 -41 -195 2 -246 49 -57 104
-71 187 -47 31 9 67 38 147 118 156 155 269 318 269 388 0 44 -45 156 -64 160
-9 2 -16 -2 -16 -8 0 -6 -35 -64 -77 -128 -85 -129 -198 -252 -231 -252 -20 0
-20 1 -3 58 61 201 265 694 464 1122 19 41 44 95 55 120 11 25 50 107 86 184
36 76 66 144 66 150 0 20 -23 36 -49 34 -15 -1 -72 -4 -129 -7z"/>
<path d="M8977 13599 c-96 -23 -197 -102 -306 -239 -262 -329 -302 -766 -76
-840 129 -43 335 91 481 311 144 219 224 424 224 580 0 120 -44 174 -139 167
-27 -2 -54 2 -62 9 -21 17 -79 23 -122 12z m53 -178 c5 -11 22 -21 37 -23 27
-3 28 -5 27 -55 -2 -71 -28 -147 -101 -294 -110 -223 -259 -379 -330 -346 -59
27 -51 167 18 324 11 24 19 45 19 49 0 12 86 151 129 207 47 63 153 157 176
157 8 0 19 -9 25 -19z"/>
<path d="M16022 12743 c-38 -13 -47 -23 -76 -81 -19 -37 -46 -96 -61 -132 -15
-36 -30 -69 -35 -73 -4 -5 -48 -17 -96 -28 -192 -42 -250 -76 -291 -166 -28
-64 -20 -88 31 -96 36 -6 58 -1 174 34 39 12 75 19 79 15 4 -3 -6 -41 -21 -84
-117 -325 -182 -534 -214 -697 -13 -62 -6 -219 11 -255 40 -85 91 -115 192
-114 97 1 150 29 253 139 149 157 175 216 134 308 -14 32 -25 45 -35 41 -8 -3
-44 -45 -81 -94 -140 -184 -244 -252 -280 -182 -17 34 -14 135 8 217 56 206
218 701 252 767 10 19 27 31 57 38 54 15 189 57 247 77 93 33 105 72 36 127
-48 40 -76 44 -152 21 -87 -26 -87 -26 -52 68 17 45 33 98 35 118 5 34 3 37
-27 43 -39 7 -35 8 -88 -11z"/>
<path d="M11575 12044 c-184 -21 -314 -63 -538 -175 -338 -167 -570 -400 -542
-545 8 -46 58 -102 99 -109 59 -11 176 51 225 120 27 39 12 56 -28 32 -31 -18
-61 -22 -61 -9 0 33 137 172 231 233 118 78 374 208 386 196 2 -3 -8 -18 -23
-33 -15 -16 -41 -60 -59 -99 -18 -38 -49 -105 -69 -148 -20 -43 -36 -80 -36
-82 0 -3 -11 -28 -24 -57 -41 -91 -232 -538 -281 -658 -26 -63 -53 -128 -60
-145 -7 -16 -27 -68 -45 -115 -17 -47 -36 -96 -42 -110 -5 -14 -12 -59 -15
-100 -5 -67 -3 -77 16 -94 20 -18 26 -18 94 -7 69 13 117 39 117 65 0 47 228
656 245 656 6 0 49 -35 96 -77 192 -176 256 -231 363 -318 181 -146 272 -197
355 -198 61 -1 102 24 146 90 36 54 51 61 87 42 11 -6 52 -10 90 -10 195 2
340 69 500 233 37 37 69 65 71 61 2 -5 7 -24 11 -44 26 -147 284 -138 520 19
222 146 293 340 160 431 -65 45 -154 60 -354 63 -110 1 -150 8 -150 27 0 24
102 140 168 193 79 63 178 118 211 118 17 0 20 -5 15 -29 -5 -23 -1 -32 18
-45 69 -45 230 68 231 162 2 117 -31 149 -141 137 -111 -12 -215 -54 -351
-143 -230 -150 -351 -324 -320 -462 25 -111 79 -134 339 -145 187 -8 210 -16
185 -65 -36 -69 -229 -170 -326 -170 -38 0 -74 29 -81 65 -3 16 -11 20 -38 19
-19 0 -41 -2 -49 -5 -10 -3 -17 11 -25 46 -18 81 -37 75 -145 -48 -162 -187
-240 -239 -366 -245 -60 -3 -74 -1 -97 18 -36 27 -36 63 -2 107 42 55 165 171
221 209 57 38 93 78 93 103 0 22 -51 71 -74 71 -10 0 -55 -18 -101 -40 -47
-22 -90 -37 -99 -34 -20 8 -20 7 2 42 42 70 204 232 231 232 5 0 12 -15 18
-32 8 -30 12 -33 46 -31 75 5 161 91 168 168 5 62 -1 81 -29 97 -121 72 -488
-140 -588 -341 -50 -99 -33 -244 32 -273 13 -6 24 -14 24 -18 0 -4 -18 -20
-41 -35 -53 -37 -98 -96 -114 -148 -15 -49 -5 -135 20 -173 19 -30 19 -34 -4
-34 -29 0 -139 60 -222 122 -65 48 -421 338 -458 373 -12 11 -1 20 65 53 220
108 422 263 544 417 119 150 157 313 100 431 -25 50 -101 124 -158 153 -88 45
-236 62 -387 45z m262 -193 c60 -16 93 -46 93 -84 0 -54 -19 -102 -69 -179
-104 -160 -278 -313 -482 -425 -51 -28 -119 -51 -119 -41 0 4 58 139 99 232
155 347 160 365 118 404 -13 12 -38 27 -56 33 -38 14 -32 22 29 38 134 37 298
46 387 22z"/>
<path d="M15294 11999 c-71 -37 -136 -98 -216 -204 -33 -44 -64 -81 -69 -83
-5 -2 2 28 15 66 47 138 43 199 -12 186 -54 -13 -114 -47 -138 -79 -13 -17
-45 -90 -70 -161 -25 -71 -61 -174 -81 -229 -194 -551 -195 -554 -174 -579 17
-20 112 -31 140 -16 13 6 41 52 68 108 78 162 169 318 298 512 122 182 198
280 209 270 3 -3 -2 -26 -10 -50 -22 -61 -27 -97 -20 -135 13 -70 80 -97 130
-52 27 24 106 206 131 303 22 85 19 111 -14 145 -42 41 -107 41 -187 -2z"/>
<path d="M14228 11796 c-106 -38 -233 -152 -330 -296 -87 -130 -123 -215 -165
-385 -11 -43 -4 -221 10 -259 77 -210 322 -173 534 80 159 190 286 468 300
659 5 61 2 80 -15 117 -28 56 -53 71 -121 70 -32 0 -63 6 -75 14 -25 17 -89
17 -138 0z m78 -171 c13 -14 32 -25 43 -25 31 0 35 -37 13 -116 -55 -194 -172
-406 -281 -506 -70 -65 -102 -82 -134 -74 -122 30 10 437 208 643 22 23 117
102 124 103 2 0 14 -11 27 -25z"/>
<path d="M19040 10775 c-6 -16 -35 -86 -64 -155 -30 -69 -91 -215 -136 -324
-44 -110 -90 -218 -100 -240 -28 -64 -70 -169 -67 -171 1 -1 44 -30 94 -64 51
-34 95 -66 98 -71 3 -4 2 -17 -2 -28 -7 -17 -28 -6 -201 109 -106 71 -196 129
-200 129 -7 0 -32 -48 -32 -62 0 -4 -11 -31 -24 -60 -13 -29 -44 -105 -69
-168 -25 -63 -57 -141 -71 -173 -14 -32 -26 -61 -26 -66 0 -4 396 71 880 168
484 97 880 178 880 181 -1 5 -21 27 -201 221 -58 63 -117 126 -131 141 -13 15
-72 78 -130 140 -58 62 -116 125 -130 140 -41 45 -240 259 -300 323 l-57 60
-11 -30z m287 -334 c39 -42 70 -78 68 -80 -2 -2 -25 4 -51 13 -26 9 -51 16
-56 16 -4 0 -8 -46 -8 -102 0 -89 -2 -100 -14 -83 -12 18 -64 110 -90 160 -6
12 -15 22 -20 23 -5 2 -22 -37 -38 -85 -54 -163 -49 -157 -74 -77 -13 38 -23
79 -23 92 -1 12 -4 22 -8 21 -5 0 -35 -34 -68 -75 -33 -41 -70 -87 -82 -102
l-23 -27 9 30 c9 33 197 498 213 529 9 16 21 7 102 -80 50 -54 123 -132 163
-173z"/>
<path d="M13635 9865 c-5 -2 -22 -6 -36 -9 -21 -5 -28 -14 -33 -41 -12 -64
-83 -126 -160 -139 l-38 -7 6 -52 c10 -75 13 -76 106 -58 44 8 82 12 85 9 3
-3 42 -189 87 -414 45 -225 83 -411 84 -413 4 -4 165 26 171 32 2 3 -194 999
-212 1075 -5 21 -29 28 -60 17z"/>
<path d="M12895 9729 c-27 -4 -74 -21 -104 -36 -84 -43 -121 -110 -121 -219 0
-59 42 -277 67 -344 36 -98 91 -143 178 -143 69 0 119 24 152 72 15 22 31 40
34 41 7 0 38 -149 46 -218 9 -87 -22 -132 -92 -132 -48 0 -76 24 -95 83 -6 20
-15 37 -18 37 -6 0 -61 -12 -121 -26 -21 -4 -23 -9 -17 -46 13 -81 69 -162
133 -190 96 -42 258 -13 324 59 80 86 81 149 4 534 -52 265 -79 367 -110 429
-40 78 -146 119 -260 99z m94 -173 c22 -17 40 -68 61 -173 27 -129 26 -168 -5
-198 -18 -19 -35 -25 -68 -25 -68 0 -82 25 -118 208 -26 135 -21 168 31 194
35 18 72 15 99 -6z"/>
<path d="M12235 9596 c-179 -44 -227 -159 -175 -411 55 -267 106 -335 241
-322 72 6 121 35 144 84 23 47 27 38 54 -110 31 -163 18 -203 -69 -214 -50 -7
-80 17 -100 77 -15 45 -17 45 -105 26 -58 -12 -60 -13 -57 -42 6 -71 56 -154
114 -190 101 -64 297 -27 368 70 27 37 38 80 39 147 1 94 -121 696 -155 766
-55 114 -157 154 -299 119z m113 -162 c12 -8 26 -24 32 -34 12 -23 60 -252 60
-287 0 -36 -51 -83 -90 -83 -69 0 -88 30 -120 187 -29 139 -27 175 11 207 35
29 74 33 107 10z"/>
<path d="M11735 9485 c-5 -2 -22 -6 -37 -9 -20 -5 -28 -13 -28 -27 0 -63 -81
-138 -164 -153 l-38 -7 7 -47 c12 -83 12 -82 110 -62 62 13 88 14 90 6 2 -6
40 -193 84 -415 45 -222 83 -406 85 -408 5 -5 157 24 164 31 2 2 -45 249 -105
548 -108 537 -109 543 -133 545 -14 1 -29 0 -35 -2z"/>
<path d="M8350 8633 c-30 -15 -88 -42 -129 -61 l-75 -35 -134 7 c-74 4 -162 9
-196 11 -34 3 -95 7 -137 10 l-76 5 -139 -143 c-126 -130 -140 -148 -150 -193
-6 -27 -35 -140 -64 -252 l-53 -204 53 -266 c29 -147 54 -269 56 -271 3 -3 90
8 241 31 70 10 71 11 61 34 -6 13 -23 25 -39 29 -16 3 -42 8 -59 11 -16 3 -31
12 -31 20 -6 69 -2 86 48 187 32 65 59 107 68 107 8 0 23 4 33 9 27 14 57 26
242 96 96 37 184 70 195 75 11 4 47 18 80 30 33 12 68 26 77 31 10 5 19 9 22
9 2 0 25 -64 51 -142 l47 -143 88 -94 87 -95 102 19 c56 10 104 22 107 27 12
19 -9 46 -44 56 -30 9 -43 21 -60 55 -20 40 -21 53 -16 217 3 96 7 181 10 189
2 8 11 10 22 6 20 -8 19 -8 97 -25 54 -12 65 -19 104 -66 43 -51 45 -52 131
-69 49 -9 93 -14 99 -10 19 11 12 33 -21 59 -42 33 -33 40 27 19 46 -15 49
-15 62 2 20 29 15 57 -18 93 -28 31 -34 33 -72 27 -31 -4 -38 -3 -27 4 8 6 22
11 31 11 45 0 70 70 37 103 -7 8 -38 49 -68 91 -54 75 -58 78 -173 137 -65 33
-133 73 -150 88 -96 87 -148 124 -213 156 -39 19 -73 35 -75 34 -2 0 -29 -12
-59 -26z"/>
<path d="M8123 7831 c-91 -35 -93 -36 -88 -66 8 -48 9 -267 2 -300 -13 -54 44
-99 107 -85 49 11 50 12 15 35 -16 11 -29 25 -29 32 0 7 20 50 45 97 43 83 49
100 61 181 4 22 10 49 14 59 8 24 -9 86 -24 85 -6 -1 -53 -18 -103 -38z"/>
<path d="M16647 7692 l-97 -98 47 -64 c26 -36 83 -117 127 -180 119 -172 236
-341 331 -475 46 -66 124 -177 172 -247 48 -71 93 -128 98 -128 6 0 39 29 74
64 l63 63 -69 94 c-38 52 -73 100 -77 108 -6 9 16 37 70 92 43 43 84 79 90 79
6 0 55 -34 109 -75 53 -41 100 -75 104 -75 10 0 146 139 140 144 -7 7 -647
484 -862 643 -114 84 -211 153 -215 153 -4 0 -51 -44 -105 -98z m413 -360
c107 -83 213 -167 235 -186 l40 -34 -64 -59 c-35 -32 -67 -59 -71 -61 -4 -1
-15 10 -25 25 -16 25 -132 184 -292 400 -53 72 -70 111 -35 81 9 -8 105 -83
212 -166z"/>
<path d="M7680 7664 l-85 -34 -48 -94 c-26 -51 -47 -100 -47 -109 0 -15 193
-107 225 -107 8 0 30 7 48 16 26 12 33 21 30 35 -4 14 -15 19 -43 19 -34 0
-42 5 -69 45 l-30 44 53 89 c77 128 79 132 64 131 -7 -1 -51 -16 -98 -35z"/>
<path d="M15895 7090 c-143 -93 -259 -174 -257 -180 1 -6 23 -42 48 -80 l46
-69 42 26 c22 14 60 39 84 55 24 16 48 28 55 25 7 -3 149 -217 315 -476 289
-448 305 -470 325 -459 12 6 52 31 89 55 l66 45 -117 181 c-418 645 -491 760
-491 772 0 8 38 38 85 67 46 29 85 56 85 61 0 15 -93 147 -104 146 -6 0 -128
-76 -271 -169z"/>
<path d="M10531 6183 c-140 -329 -254 -604 -255 -612 -1 -15 175 -94 185 -83
4 4 57 126 119 272 62 146 113 266 114 268 2 1 47 -18 102 -42 65 -28 98 -48
96 -57 -2 -8 -53 -130 -113 -273 -61 -142 -107 -262 -102 -266 16 -16 178 -78
185 -72 7 8 506 1181 510 1201 2 10 -25 27 -82 52 -47 21 -90 38 -95 38 -6 1
-58 -109 -115 -244 -57 -135 -105 -245 -107 -245 -20 0 -203 86 -200 94 3 6
48 112 100 236 53 124 97 231 99 239 2 10 -25 27 -82 52 -47 21 -90 38 -95 38
-6 1 -124 -268 -264 -596z"/>
<path d="M15120 6673 c-47 -20 -87 -38 -88 -39 -3 -2 426 -1004 507 -1185 l17
-37 96 41 97 40 -12 28 c-200 472 -515 1188 -522 1188 -5 0 -48 -16 -95 -36z"/>
<path d="M14252 6405 c-97 -27 -159 -71 -195 -139 -19 -35 -22 -56 -21 -146 1
-96 8 -136 87 -460 47 -195 93 -375 103 -400 18 -48 55 -103 89 -133 71 -63
202 -77 314 -33 132 53 182 119 189 250 3 71 -3 109 -53 315 -30 129 -57 236
-58 237 -4 5 -276 -61 -283 -69 -11 -10 28 -168 42 -174 7 -2 29 0 50 6 21 6
40 9 42 7 2 -2 19 -70 38 -152 39 -164 38 -191 -8 -229 -55 -47 -140 -26 -166
42 -24 61 -184 761 -183 803 0 61 41 100 105 100 64 0 89 -29 116 -141 14 -55
27 -89 34 -86 6 2 48 12 94 22 45 10 82 23 82 29 -1 31 -42 171 -64 214 -27
53 -74 103 -122 129 -41 22 -166 26 -232 8z"/>
<path d="M11996 6352 c-6 -9 -47 -123 -146 -397 -39 -110 -89 -247 -110 -305
-21 -58 -57 -157 -80 -220 -23 -63 -59 -162 -81 -220 -26 -70 -35 -106 -28
-111 9 -5 88 -20 172 -33 4 0 26 53 49 119 22 66 42 122 44 124 3 3 68 -8 207
-35 l29 -6 -7 -132 -7 -132 97 -18 c54 -9 100 -15 103 -12 7 7 9 54 16 446 4
184 9 364 11 400 2 36 5 161 7 279 l3 214 -115 23 c-126 25 -156 28 -164 16z
m89 -349 c-2 -49 -7 -146 -10 -218 -8 -192 -17 -330 -20 -333 -5 -5 -154 21
-167 30 -10 5 10 76 77 275 93 281 112 333 120 333 3 0 3 -39 0 -87z"/>
<path d="M12904 6236 c-3 -7 2 -281 10 -609 9 -327 16 -621 16 -651 l0 -56
106 0 106 0 -7 285 -7 285 61 0 c76 0 115 -19 131 -62 6 -18 16 -123 20 -233
5 -110 12 -215 15 -232 l6 -33 108 0 109 0 -14 38 c-9 24 -13 88 -14 187 0
273 -24 372 -100 423 -44 29 -46 36 -16 50 34 15 71 76 86 141 16 66 7 244
-15 318 -20 68 -75 124 -144 146 -71 23 -448 26 -457 3z m367 -186 c37 -20 49
-63 48 -172 -1 -57 -4 -114 -8 -127 -11 -41 -54 -65 -126 -69 l-65 -4 0 160
c0 88 -3 174 -6 191 l-6 31 71 0 c40 0 81 -5 92 -10z"/>
</g>
</svg>
